<?xml version="1.0" encoding="utf-8"?>
<!-- Generator: Adobe Illustrator 27.5.0, SVG Export Plug-In . SVG Version: 6.00 Build 0)  -->
<svg version="1.1" xmlns="http://www.w3.org/2000/svg" xmlns:xlink="http://www.w3.org/1999/xlink" x="0px" y="0px" viewbox="100%" xml:space="preserve">
		<g>
			
				<ellipse transform="matrix(0.1641 -0.9864 0.9864 0.1641 92.7519 412.0012)" style="fill:#F4E6E1;" cx="289.476" cy="151.273" rx="76.706" ry="76.706"/>
			<g>
				<defs>
					
						<ellipse id="SVGID_1_" transform="matrix(0.1641 -0.9864 0.9864 0.1641 92.7519 412.0012)" cx="289.476" cy="151.273" rx="76.706" ry="76.706"/>
				</defs>
				<clipPath id="SVGID_00000050645256313415890280000016060891131407133059_">
					<use xlink:href="#SVGID_1_"  style="overflow:visible;"/>
				</clipPath>
				<g style="clip-path:url(#SVGID_00000050645256313415890280000016060891131407133059_);">
					<path style="fill:#D76A40;" d="M319.894,137.193c0.62-8.552,7.124-32.34-6.915-30.725
						c-1.818-12.387-13.423-18.656-24.605-18.084c-30.329,1.551-35.021,29.256-30.267,48.808
						c7.696,20.499,47.245,4.473,61.783,0.033C319.892,137.215,319.893,137.204,319.894,137.193z"/>
					<g>
						<path style="fill:#5B4850;" d="M356.294,229.574H222.658c0,0,4.052-22.413,13.237-35.315
							c9.185-12.91,43.273-17.617,43.273-17.617l10.308,1.59l10.308-1.59c0,0,34.099,4.707,43.284,17.617
							C352.253,207.161,356.294,229.574,356.294,229.574z"/>
						<path style="fill:#FFFFFF;" d="M271.25,177.605c9.08-2.09,16.81-1.48,18.05-1.36c0,0,0,0,0.01,0
							c1.24-0.12,8.97-0.73,18.05,1.36c0.865,8.13-2.492,18.369-17.884,18.416C273.893,196.069,270.37,185.835,271.25,177.605z"/>
						<g>
							<path style="fill:#F1B69A;" d="M289.254,188.024L289.254,188.024c-5,0-9.052-4.053-9.052-9.053v-17.292h18.105v17.292
								C298.306,183.971,294.254,188.024,289.254,188.024z"/>
							<path style="fill:#150A08;" d="M298.307,160.666v10.617c0,0-3.04,5.286-9.053,5.286c-4.831,0-9.051-4.583-9.051-4.583v-11.32
								H298.307z"/>
							<g>
								<path style="fill:#F1B69A;" d="M263.926,141.092c-4.895-7.437-10.573-2.659-10.573,2.576c0,7.581,8.223,14.11,12.922,8.669
									C270.975,146.895,263.926,141.092,263.926,141.092z"/>
								<path style="fill:none;stroke:#E07E61;stroke-linecap:round;stroke-miterlimit:10;" d="M262.856,144.527
									c-3.046-5.694-7.257-0.381-5.649,1.728"/>
								<path style="fill:#F1B69A;" d="M312.827,141.092c4.895-7.437,10.573-2.659,10.573,2.576c0,7.581-8.223,14.11-12.922,8.669
									C305.779,146.895,312.827,141.092,312.827,141.092z"/>
								<path style="fill:none;stroke:#E07E61;stroke-linecap:round;stroke-miterlimit:10;" d="M313.897,144.527
									c3.046-5.694,7.257-0.381,5.649,1.728"/>
							</g>
							<path style="fill:#F1B69A;" d="M288.354,170.295c-19.343-0.008-30.781-21.145-26.259-42.848
								c3.725-17.884,48.838-17.877,52.563,0C319.179,149.151,307.706,170.303,288.354,170.295z"/>
							<path style="fill:#D76A40;" d="M316.899,134.562c0,0-0.25,19.48-7.52,28.59c-7.261,9.11-20.124,9.699-20.124,9.699
								s-14.413-0.589-21.674-9.699c-7.261-9.11-7.52-28.59-7.52-28.59l1.008-1.96c0.736,5.222,4.153,18.753,8.259,21.743
								c6.725-2.25,11.758-2.501,19.438-2.501c8.211,0,13.445,0.883,19.151,1.599c3.305-2.909,7.308-16.084,7.974-20.841
								L316.899,134.562z"/>
							<path style="opacity:0.5;fill:#F1B69A;" d="M285.785,148.569c1.991,0.95,6.475-1.157,6.568,0
								c0.093,1.157-2.38,2.181-3.284,2.181C288.164,150.75,285.785,148.569,285.785,148.569z"/>
							<path style="fill:none;stroke:#E07E61;stroke-linecap:round;stroke-miterlimit:10;" d="M285.848,142.737
								c-2.823,6.102,1.398,7.286,2.528,7.433"/>
							<path style="fill:#FFFFFF;" d="M281.34,154.346c7.404,0.796,12.354-0.018,15.867,0.102c0,0-4.435,6.264-9.649,5.018
								C282.345,158.22,281.34,154.346,281.34,154.346z"/>
							<path style="fill:#D76A40;" d="M280.727,126.107c-1.209-2.699-8.292-1.465-9.293,0.457c-1.001,1.922,2.313,2.462,4.773,2.341
								C278.667,128.784,281.496,127.825,280.727,126.107z"/>
							<path style="fill:#D76A40;" d="M296.026,126.107c1.209-2.699,8.292-1.465,9.293,0.457c1.001,1.922-2.313,2.462-4.773,2.341
								C298.087,128.784,295.257,127.825,296.026,126.107z"/>
							<path style="opacity:0.5;fill:#F1B69A;" d="M286.458,161.287c2.708,0.007,6.591-1.402,7.192,0
								c0.601,1.402-2.705,4.205-4.756,4.004C286.843,165.091,283.366,161.279,286.458,161.287z"/>
							<path style="fill:#150A08;" d="M275.609,136.511c0,1.075,0.871,1.946,1.946,1.946c1.075,0,1.946-0.871,1.946-1.946
								c0-1.075-0.871-1.946-1.946-1.946C276.481,134.565,275.609,135.436,275.609,136.511z"/>
							<circle style="fill:#150A08;" cx="299.198" cy="136.511" r="1.946"/>
						</g>
					</g>
					<path style="fill:#D76A40;" d="M273.557,114.379l4.507-1.093c0,0-5.869,9.42,6.635,11.227
						c12.504,1.807,25.53-6.658,15.145-10.976l3.775-0.251l-9.084-6.968L273.557,114.379z"/>
				</g>
			</g>
		</g>
</svg>
