<svg width="78" height="36" viewBox="0 0 78 36" fill="none" xmlns="http://www.w3.org/2000/svg">
<path fill-rule="evenodd" clip-rule="evenodd" d="M38.8088 14.8945H38.0555C37.0503 14.8031 34.2175 14.3736 30.9277 13.3867L36.1365 21.1313C36.4792 20.1033 37.5072 19.1438 38.3297 19.1438H38.8088H39.1521H39.6313C40.4537 19.1438 41.4818 20.1033 41.8244 21.1313L47.0332 13.3867C43.7435 14.3736 40.9106 14.8031 39.9054 14.8945H39.1521H38.8088Z" fill="url(#paint0_linear_1_27262)"/>
<g filter="url(#filter0_b_1_27262)">
<path d="M11.893 13.8222C16.4438 13.4933 20.3915 13.8908 23.133 14.302C24.7778 14.5259 28.2047 14.9188 31.2203 16.7693C34.2359 18.6198 32.2483 27.461 28.2047 31.1619C24.161 34.8629 16.2793 34.1775 11.893 32.5326C7.50657 30.8878 6.61566 23.8285 6.41005 21.7725C6.20444 19.7164 6.20444 14.2335 11.893 13.8222Z" fill="url(#paint1_linear_1_27262)"/>
<path d="M23.0588 14.7965L23.0588 14.7965L23.0655 14.7974C23.1356 14.807 23.2087 14.8168 23.2846 14.827C25.0043 15.0582 28.1694 15.4838 30.9587 17.1955C31.5326 17.5476 31.9313 18.2742 32.0956 19.3536C32.2583 20.4225 32.1753 21.7527 31.8709 23.1664C31.26 26.0033 29.7902 29.033 27.8671 30.7931C25.9719 32.5277 23.1316 33.2681 20.1632 33.3522C17.2042 33.436 14.2016 32.8644 12.0685 32.0645C10.0885 31.322 8.83754 29.3275 8.0545 27.1384C7.2788 24.9697 7.00929 22.7399 6.90757 21.7227C6.80743 20.7213 6.7652 18.9348 7.40413 17.3695C7.72026 16.595 8.19825 15.8865 8.90955 15.3473C9.61899 14.8094 10.5898 14.4177 11.929 14.3209C16.4312 13.9955 20.3399 14.3886 23.0588 14.7965Z" stroke="url(#paint2_linear_1_27262)"/>
</g>
<g filter="url(#filter1_b_1_27262)">
<path d="M66.1051 13.8222C61.5543 13.4933 57.6065 13.8908 54.8651 14.302C53.2203 14.5259 49.7934 14.9188 46.7778 16.7693C43.7622 18.6198 45.7497 27.461 49.7934 31.1619C53.837 34.8629 61.7187 34.1775 66.1051 32.5326C70.4915 30.8878 71.3824 23.8285 71.588 21.7725C71.7936 19.7164 71.7936 14.2335 66.1051 13.8222Z" fill="url(#paint3_linear_1_27262)"/>
<path d="M54.9392 14.7965L54.9393 14.7965L54.9325 14.7974C54.8624 14.807 54.7894 14.8168 54.7135 14.827C52.9937 15.0582 49.8287 15.4838 47.0393 17.1955C46.4654 17.5476 46.0667 18.2742 45.9024 19.3536C45.7398 20.4225 45.8228 21.7527 46.1272 23.1664C46.7381 26.0033 48.2079 29.033 50.131 30.7931C52.0261 32.5277 54.8665 33.2681 57.8349 33.3522C60.7938 33.436 63.7964 32.8644 65.9295 32.0645C67.9095 31.322 69.1605 29.3275 69.9435 27.1384C70.7192 24.9697 70.9888 22.7399 71.0905 21.7227C71.1906 20.7213 71.2328 18.9348 70.5939 17.3695C70.2778 16.595 69.7998 15.8865 69.0885 15.3473C68.3791 14.8094 67.4083 14.4177 66.069 14.3209C61.5668 13.9955 57.6582 14.3886 54.9392 14.7965Z" stroke="url(#paint4_linear_1_27262)"/>
</g>
<path d="M38.0744 15.2601L38.0405 15.6336L38.0574 15.6351H38.0744V15.2601ZM30.9466 13.7523L31.0544 13.3931V13.3931L30.9466 13.7523ZM9.42624 11.4221L9.44218 11.7968L9.42624 11.4221ZM1.88724 11.9704L1.98591 12.3322L1.88724 11.9704ZM1.27042 16.6308L0.897943 16.6752L0.899185 16.6839L1.27042 16.6308ZM1.88724 17.2477L1.79629 17.6115H1.79629L1.88724 17.2477ZM3.94333 20.6745L3.57561 20.748L3.94333 20.6745ZM4.01424 21.0322L3.64635 21.1048L4.01424 21.0322ZM7.71283 31.6403L7.42919 31.8856V31.8856L7.71283 31.6403ZM31.9061 30.064L32.2101 30.2835L31.9061 30.064ZM36.1247 21.5891L35.7689 21.4709V21.4709L36.1247 21.5891ZM36.1554 21.4969L36.5111 21.6155L36.5111 21.6155L36.1554 21.4969ZM41.8446 21.4969L41.4889 21.6155L41.4889 21.6155L41.8446 21.4969ZM41.8753 21.5891L42.2311 21.4709V21.4709L41.8753 21.5891ZM46.0939 30.064L45.7899 30.2835L46.0939 30.064ZM70.2872 31.6403L70.0035 31.395V31.395L70.2872 31.6403ZM73.9858 21.0322L73.6179 20.9595V20.9595L73.9858 21.0322ZM74.0567 20.6745L74.4244 20.748L74.4244 20.748L74.0567 20.6745ZM76.1128 17.2477L76.0218 16.8839L76.1128 17.2477ZM76.7296 16.6308L77.1009 16.6839L77.102 16.6752L76.7296 16.6308ZM76.1128 11.9704L76.0141 12.3322L76.1128 11.9704ZM68.5738 11.4221L68.5578 11.7968L68.5738 11.4221ZM47.0534 13.7523L46.9456 13.3931V13.3931L47.0534 13.7523ZM39.9256 15.2601V15.6351H39.9426L39.9595 15.6336L39.9256 15.2601ZM38.0744 15.6351H38.829V14.8851H38.0744V15.6351ZM30.8389 14.1115C34.1522 15.1055 37.0097 15.5399 38.0405 15.6336L38.1084 14.8867C37.1287 14.7976 34.3206 14.373 31.0544 13.3931L30.8389 14.1115ZM9.44218 11.7968C12.6355 11.6609 16.9657 11.9327 21.0178 12.3944C25.0738 12.8565 28.816 13.5047 30.8389 14.1115L31.0544 13.3931C28.965 12.7663 25.1683 12.1124 21.1027 11.6492C17.0333 11.1856 12.6594 10.9092 9.41029 11.0474L9.44218 11.7968ZM1.98591 12.3322C2.68838 12.1406 2.97641 12.0719 9.44218 11.7968L9.41029 11.0474C2.99124 11.3206 2.59391 11.389 1.78857 11.6086L1.98591 12.3322ZM1.30273 13.1355C1.30273 12.863 1.34936 12.7214 1.42151 12.628C1.49559 12.5322 1.64464 12.4252 1.98591 12.3322L1.78857 11.6086C1.37595 11.7211 1.04524 11.8884 0.828044 12.1694C0.608913 12.453 0.552734 12.7912 0.552734 13.1355H1.30273ZM1.64279 16.5865C1.58584 16.1081 1.5004 15.3597 1.42926 14.6699C1.35699 13.9692 1.30273 13.3582 1.30273 13.1355H0.552734C0.552734 13.4062 0.612707 14.0632 0.683219 14.7469C0.754864 15.4415 0.840768 16.194 0.898045 16.6752L1.64279 16.5865ZM1.97819 16.8839C1.84468 16.8505 1.76499 16.7854 1.7156 16.7237C1.68967 16.6913 1.67114 16.6585 1.65875 16.63C1.65261 16.6158 1.64833 16.6035 1.64551 16.5938C1.64411 16.589 1.64315 16.5852 1.64252 16.5823C1.64221 16.5809 1.64199 16.5798 1.64185 16.579C1.64178 16.5786 1.64173 16.5783 1.64169 16.5781C1.64166 16.5779 1.64165 16.5778 1.64165 16.5778L0.899185 16.6839C0.93839 16.9583 1.17703 17.4567 1.79629 17.6115L1.97819 16.8839ZM4.31105 20.6009C4.09587 19.5251 3.69988 18.656 3.2773 18.0313C3.06625 17.7194 2.84537 17.4636 2.63232 17.2726C2.42655 17.0881 2.201 16.9396 1.97819 16.8839L1.79629 17.6115C1.84763 17.6243 1.96477 17.6814 2.13166 17.831C2.29127 17.9741 2.47305 18.181 2.65608 18.4516C3.02167 18.992 3.37957 19.7678 3.57561 20.748L4.31105 20.6009ZM4.38214 20.9595C4.35643 20.8293 4.33271 20.7092 4.31105 20.6009L3.57561 20.748C3.59706 20.8553 3.62059 20.9744 3.64635 21.1048L4.38214 20.9595ZM7.99646 31.395C7.01495 30.2601 6.22443 28.2675 5.61836 26.2126C5.01709 24.1739 4.61487 22.1381 4.38214 20.9595L3.64635 21.1048C3.87887 22.2823 4.28684 24.3491 4.899 26.4247C5.50635 28.4841 6.33249 30.6175 7.42919 31.8856L7.99646 31.395ZM20.0494 35.2404C17.5466 35.2404 15.0488 34.885 12.913 34.2207C10.7697 33.5541 9.02849 32.5883 7.99646 31.395L7.42919 31.8856C8.59032 33.2282 10.4815 34.2499 12.6903 34.9369C14.9066 35.6262 17.4804 35.9904 20.0494 35.9904V35.2404ZM31.6021 29.8444C29.0119 33.4308 25.0231 35.2404 20.0494 35.2404V35.9904C25.219 35.9904 29.4545 34.099 32.2101 30.2835L31.6021 29.8444ZM35.7689 21.4709C35.3893 22.6134 34.1655 26.2952 31.6021 29.8444L32.2101 30.2835C34.844 26.6367 36.0967 22.8632 36.4806 21.7073L35.7689 21.4709ZM35.7996 21.3783C35.79 21.4071 35.7798 21.4381 35.7689 21.4709L36.4806 21.7074C36.4915 21.6744 36.5017 21.6439 36.5111 21.6155L35.7996 21.3783ZM38.3486 19.1344C37.8038 19.1344 37.2543 19.4427 36.8189 19.841C36.3752 20.2469 35.9936 20.7964 35.7996 21.3783L36.5111 21.6155C36.6599 21.1694 36.9636 20.7251 37.3252 20.3943C37.6952 20.0558 38.0709 19.8844 38.3486 19.8844V19.1344ZM38.829 19.1344H38.3486V19.8844H38.829V19.1344ZM38.829 19.8844H39.171V19.1344H38.829V19.8844ZM39.171 19.8844H39.6514V19.1344H39.171V19.8844ZM39.6514 19.8844C39.9291 19.8844 40.3048 20.0558 40.6748 20.3943C41.0364 20.7251 41.3401 21.1694 41.4889 21.6155L42.2004 21.3783C42.0064 20.7964 41.6248 20.2469 41.1811 19.841C40.7457 19.4427 40.1962 19.1344 39.6514 19.1344V19.8844ZM41.4889 21.6155C41.4983 21.6439 41.5085 21.6744 41.5194 21.7073L42.2311 21.4709C42.2202 21.4381 42.21 21.4071 42.2004 21.3783L41.4889 21.6155ZM41.5194 21.7073C41.9033 22.8632 43.156 26.6367 45.7899 30.2835L46.3979 29.8444C43.8345 26.2952 42.6107 22.6134 42.2311 21.4709L41.5194 21.7073ZM45.7899 30.2835C48.5455 34.099 52.781 35.9904 57.9506 35.9904V35.2404C52.9769 35.2404 48.9881 33.4308 46.3979 29.8444L45.7899 30.2835ZM57.9506 35.9904C60.5196 35.9904 63.0934 35.6262 65.3097 34.9369C67.5185 34.2499 69.4097 33.2282 70.5708 31.8856L70.0035 31.395C68.9715 32.5883 67.2303 33.5541 65.087 34.2207C62.9512 34.885 60.4534 35.2404 57.9506 35.2404V35.9904ZM70.5708 31.8856C71.6675 30.6175 72.4937 28.4841 73.101 26.4247C73.7132 24.3491 74.1211 22.2823 74.3537 21.1048L73.6179 20.9595C73.3851 22.138 72.9829 24.1738 72.3816 26.2125C71.7756 28.2675 70.985 30.2601 70.0035 31.395L70.5708 31.8856ZM74.3537 21.1048C74.3794 20.9744 74.4029 20.8553 74.4244 20.748L73.689 20.6009C73.6673 20.7092 73.6436 20.8293 73.6179 20.9595L74.3537 21.1048ZM74.4244 20.748C74.6204 19.7678 74.9783 18.992 75.3439 18.4516C75.527 18.181 75.7087 17.9741 75.8683 17.831C76.0352 17.6814 76.1524 17.6243 76.2037 17.6115L76.0218 16.8839C75.799 16.9396 75.5735 17.0881 75.3677 17.2726C75.1546 17.4636 74.9338 17.7194 74.7227 18.0313C74.3001 18.656 73.9041 19.5251 73.6889 20.6009L74.4244 20.748ZM76.2037 17.6115C76.823 17.4567 77.0616 16.9583 77.1008 16.6839L76.3584 16.5778C76.3584 16.5778 76.3583 16.5782 76.3582 16.579C76.358 16.5798 76.3578 16.5809 76.3575 16.5823C76.3568 16.5852 76.3559 16.589 76.3545 16.5938C76.3517 16.6035 76.3474 16.6158 76.3412 16.63C76.3289 16.6585 76.3103 16.6913 76.2844 16.7237C76.235 16.7853 76.1553 16.8505 76.0218 16.8839L76.2037 17.6115ZM77.102 16.6752C77.1592 16.194 77.2451 15.4415 77.3168 14.7469C77.3873 14.0632 77.4473 13.4062 77.4473 13.1355H76.6973C76.6973 13.3582 76.643 13.9692 76.5707 14.6699C76.4996 15.3597 76.4142 16.1081 76.3572 16.5865L77.102 16.6752ZM77.4473 13.1355C77.4473 12.7912 77.3911 12.453 77.172 12.1694C76.9548 11.8884 76.624 11.7211 76.2114 11.6086L76.0141 12.3322C76.3554 12.4252 76.5044 12.5322 76.5785 12.628C76.6506 12.7214 76.6973 12.863 76.6973 13.1355H77.4473ZM76.2114 11.6086C75.4061 11.389 75.0088 11.3206 68.5897 11.0474L68.5578 11.7968C75.0236 12.0719 75.3116 12.1406 76.0141 12.3322L76.2114 11.6086ZM68.5897 11.0474C65.3406 10.9092 60.9667 11.1856 56.8973 11.6492C52.8317 12.1124 49.035 12.7663 46.9456 13.3931L47.1611 14.1115C49.184 13.5047 52.9262 12.8565 56.9822 12.3944C61.0343 11.9327 65.3645 11.6609 68.5578 11.7968L68.5897 11.0474ZM46.9456 13.3931C43.6794 14.373 40.8713 14.7976 39.8916 14.8867L39.9595 15.6336C40.9903 15.5399 43.8478 15.1055 47.1611 14.1115L46.9456 13.3931ZM39.9256 14.8851H39.171V15.6351H39.9256V14.8851ZM39.171 14.8851H38.829V15.6351H39.171V14.8851Z" fill="black"/>
<path d="M5.67339 15.1363C5.70787 15.1613 5.72235 15.1789 5.72817 15.1879C5.72235 15.197 5.70787 15.2145 5.67339 15.2396C5.60815 15.2871 5.50088 15.3382 5.35034 15.3845C5.0517 15.4764 4.62697 15.5362 4.14913 15.5362C3.6713 15.5362 3.24656 15.4764 2.94792 15.3845C2.79738 15.3382 2.69012 15.2871 2.62488 15.2396C2.59039 15.2145 2.57592 15.197 2.57009 15.1879C2.57592 15.1789 2.59039 15.1613 2.62488 15.1363C2.69012 15.0888 2.79738 15.0377 2.94792 14.9914C3.24656 14.8995 3.6713 14.8396 4.14913 14.8396C4.62697 14.8396 5.0517 14.8995 5.35034 14.9914C5.50088 15.0377 5.60815 15.0888 5.67339 15.1363Z" stroke="black" stroke-width="0.4"/>
<path d="M72.3266 15.1363C72.2921 15.1613 72.2777 15.1789 72.2718 15.1879C72.2777 15.197 72.2921 15.2145 72.3266 15.2396C72.3919 15.2871 72.4991 15.3382 72.6497 15.3845C72.9483 15.4764 73.373 15.5362 73.8509 15.5362C74.3287 15.5362 74.7534 15.4764 75.0521 15.3845C75.2026 15.3382 75.3099 15.2871 75.3751 15.2396C75.4096 15.2145 75.4241 15.197 75.4299 15.1879C75.4241 15.1789 75.4096 15.1613 75.3751 15.1363C75.3099 15.0888 75.2026 15.0377 75.0521 14.9914C74.7534 14.8995 74.3287 14.8396 73.8509 14.8396C73.373 14.8396 72.9483 14.8995 72.6497 14.9914C72.4991 15.0377 72.3919 15.0888 72.3266 15.1363Z" stroke="black" stroke-width="0.4"/>
<path d="M12.0219 13.8222C16.5727 13.4933 20.5204 13.8908 23.2619 14.302C24.9067 14.5259 28.3336 14.9188 31.3492 16.7693C34.3648 18.6198 32.3772 27.461 28.3336 31.1619C24.2899 34.8629 16.4082 34.1775 12.0219 32.5326C7.63548 30.8878 6.74457 23.8285 6.53896 21.7725C6.33335 19.7164 6.33335 14.2335 12.0219 13.8222Z" stroke="black" stroke-width="0.5"/>
<path d="M66.234 13.8222C61.6832 13.4933 57.7354 13.8908 54.994 14.302C53.3492 14.5259 49.9223 14.9188 46.9067 16.7693C43.8911 18.6198 45.8787 27.461 49.9223 31.1619C53.9659 34.8629 61.8476 34.1775 66.234 32.5326C70.6204 30.8878 71.5113 23.8285 71.7169 21.7725C71.9225 19.7164 71.9225 14.2335 66.234 13.8222Z" stroke="black" stroke-width="0.5"/>
<path d="M32.9277 2.38672L35.4277 3.83009V0.943343L32.9277 2.38672ZM44.9277 2.38672L42.4277 0.943343V3.83009L44.9277 2.38672ZM35.1777 2.63672H42.6777V2.13672H35.1777V2.63672Z" fill="#F3F3F3"/>
<defs>
<filter id="filter0_b_1_27262" x="-15.6504" y="-8.29956" width="70.3281" height="64.1599" filterUnits="userSpaceOnUse" color-interpolation-filters="sRGB">
<feFlood flood-opacity="0" result="BackgroundImageFix"/>
<feGaussianBlur in="BackgroundImageFix" stdDeviation="11"/>
<feComposite in2="SourceAlpha" operator="in" result="effect1_backgroundBlur_1_27262"/>
<feBlend mode="normal" in="SourceGraphic" in2="effect1_backgroundBlur_1_27262" result="shape"/>
</filter>
<filter id="filter1_b_1_27262" x="23.3203" y="-8.29956" width="70.3281" height="64.1599" filterUnits="userSpaceOnUse" color-interpolation-filters="sRGB">
<feFlood flood-opacity="0" result="BackgroundImageFix"/>
<feGaussianBlur in="BackgroundImageFix" stdDeviation="11"/>
<feComposite in2="SourceAlpha" operator="in" result="effect1_backgroundBlur_1_27262"/>
<feBlend mode="normal" in="SourceGraphic" in2="effect1_backgroundBlur_1_27262" result="shape"/>
</filter>
<linearGradient id="paint0_linear_1_27262" x1="41.2777" y1="20.7106" x2="46.4129" y2="13.4562" gradientUnits="userSpaceOnUse">
<stop stop-color="#F07B00"/>
<stop offset="1" stop-color="#F9FFED"/>
</linearGradient>
<linearGradient id="paint1_linear_1_27262" x1="10.0715" y1="3.72808" x2="37.7291" y2="35.0489" gradientUnits="userSpaceOnUse">
<stop stop-color="white"/>
<stop offset="1" stop-color="white" stop-opacity="0.32"/>
</linearGradient>
<linearGradient id="paint2_linear_1_27262" x1="32.0896" y1="34.2245" x2="2.0207" y2="16.2952" gradientUnits="userSpaceOnUse">
<stop stop-color="white" stop-opacity="0.74"/>
<stop offset="1" stop-color="#F8F8F8" stop-opacity="0"/>
</linearGradient>
<linearGradient id="paint3_linear_1_27262" x1="67.9265" y1="3.72808" x2="40.269" y2="35.0489" gradientUnits="userSpaceOnUse">
<stop stop-color="white"/>
<stop offset="1" stop-color="white" stop-opacity="0.32"/>
</linearGradient>
<linearGradient id="paint4_linear_1_27262" x1="45.9084" y1="34.2245" x2="75.9774" y2="16.2952" gradientUnits="userSpaceOnUse">
<stop stop-color="white" stop-opacity="0.74"/>
<stop offset="1" stop-color="#F8F8F8" stop-opacity="0"/>
</linearGradient>
</defs>
</svg>
