<svg width="78" height="37" viewBox="0 0 78 37" fill="none" xmlns="http://www.w3.org/2000/svg">
<path d="M31.4466 13.2484C34.7364 14.2353 34.9277 15.3828 35.4277 15.8828L36.079 17.5109C36.3102 18.089 36.4552 18.698 36.5093 19.3184C36.6063 20.4305 36.576 21.5579 36.1969 22.6079C35.5698 24.3447 34.3316 26.8941 32.4061 29.5601C29.7332 33.261 25.621 35.1115 20.5494 35.1115C15.4777 35.1115 10.406 33.6722 8.21283 31.1364C6.01967 28.6005 4.85455 22.2267 4.44333 20.1706C4.03211 18.1145 2.93553 16.8808 2.38724 16.7438C1.94861 16.6341 1.79326 16.2869 1.77042 16.1269C1.65619 15.1674 1.42773 13.1251 1.42773 12.6316C1.42773 12.0148 1.63334 11.6721 2.38724 11.4665C3.14114 11.2609 3.48382 11.1923 9.92624 10.9182C16.3686 10.644 27.3345 12.0148 31.4466 13.2484Z" fill="url(#paint0_linear_1_27211)"/>
<g filter="url(#filter0_b_1_27211)">
<path d="M12.393 13.3183C16.9438 12.9894 20.8915 13.3869 23.633 13.7981C25.2778 14.022 28.7047 14.4149 31.7203 16.2654C34.7359 18.1159 32.7483 26.9571 28.7047 30.658C24.661 34.359 16.7793 33.6736 12.393 32.0287C8.00657 30.3839 7.11566 23.3246 6.91005 21.2685C6.70444 19.2125 6.70444 13.7295 12.393 13.3183Z" fill="url(#paint1_linear_1_27211)"/>
<path d="M23.5588 14.2926L23.5588 14.2926L23.5655 14.2935C23.6356 14.3031 23.7087 14.3129 23.7846 14.3231C25.5043 14.5543 28.6694 14.9799 31.4587 16.6916C32.0326 17.0437 32.4313 17.7703 32.5956 18.8497C32.7583 19.9186 32.6753 21.2488 32.3709 22.6625C31.76 25.4994 30.2902 28.5291 28.3671 30.2892C26.4719 32.0237 23.6316 32.7642 20.6632 32.8483C17.7042 32.9321 14.7016 32.3605 12.5685 31.5606C10.5885 30.8181 9.33754 28.8236 8.5545 26.6345C7.7788 24.4658 7.50929 22.236 7.40757 21.2188C7.30743 20.2174 7.2652 18.4309 7.90413 16.8656C8.22026 16.091 8.69825 15.3826 9.40955 14.8433C10.119 14.3055 11.0898 13.9138 12.429 13.817C16.9312 13.4916 20.8399 13.8847 23.5588 14.2926Z" stroke="url(#paint2_linear_1_27211)"/>
</g>
<g filter="url(#filter1_b_1_27211)">
<path d="M66.6051 13.3183C62.0543 12.9894 58.1065 13.3869 55.3651 13.7981C53.7203 14.022 50.2934 14.4149 47.2778 16.2654C44.2622 18.1159 46.2497 26.9571 50.2934 30.658C54.337 34.359 62.2187 33.6736 66.6051 32.0287C70.9915 30.3839 71.8824 23.3246 72.088 21.2685C72.2936 19.2125 72.2936 13.7295 66.6051 13.3183Z" fill="url(#paint3_linear_1_27211)"/>
<path d="M55.4392 14.2926L55.4393 14.2926L55.4325 14.2935C55.3624 14.3031 55.2894 14.3129 55.2135 14.3231C53.4937 14.5543 50.3287 14.9799 47.5393 16.6916C46.9654 17.0437 46.5667 17.7703 46.4024 18.8497C46.2398 19.9186 46.3228 21.2488 46.6272 22.6625C47.2381 25.4994 48.7079 28.5291 50.631 30.2892C52.5261 32.0237 55.3665 32.7642 58.3349 32.8483C61.2938 32.9321 64.2964 32.3605 66.4295 31.5606C68.4095 30.8181 69.6605 28.8236 70.4435 26.6345C71.2192 24.4658 71.4888 22.236 71.5905 21.2188C71.6906 20.2174 71.7328 18.4309 71.0939 16.8656C70.7778 16.091 70.2998 15.3826 69.5885 14.8433C68.8791 14.3055 67.9083 13.9138 66.569 13.817C62.0668 13.4916 58.1582 13.8847 55.4392 14.2926Z" stroke="url(#paint4_linear_1_27211)"/>
</g>
<path d="M38.5744 14.7562L38.5405 15.1297L38.5574 15.1312H38.5744V14.7562ZM31.4466 13.2484L31.5544 12.8892V12.8892L31.4466 13.2484ZM9.92624 10.9182L9.94218 11.2928L9.92624 10.9182ZM2.38724 11.4665L2.48591 11.8283L2.38724 11.4665ZM1.77042 16.1269L1.39794 16.1713L1.39918 16.18L1.77042 16.1269ZM2.38724 16.7438L2.29629 17.1076H2.29629L2.38724 16.7438ZM4.44333 20.1706L4.07561 20.2441L4.44333 20.1706ZM4.51424 20.5283L4.14635 20.6009L4.51424 20.5283ZM8.21283 31.1364L7.92919 31.3817V31.3817L8.21283 31.1364ZM32.4061 29.5601L32.7101 29.7796L32.4061 29.5601ZM36.6247 21.0852L36.2689 20.967V20.967L36.6247 21.0852ZM36.6554 20.993L37.0111 21.1116L37.0111 21.1116L36.6554 20.993ZM42.3446 20.993L41.9889 21.1116L41.9889 21.1116L42.3446 20.993ZM42.3753 21.0852L42.7311 20.967V20.967L42.3753 21.0852ZM46.5939 29.5601L46.2899 29.7796L46.5939 29.5601ZM70.7872 31.1364L70.5035 30.8911V30.8911L70.7872 31.1364ZM74.4858 20.5283L74.1179 20.4556V20.4556L74.4858 20.5283ZM74.5567 20.1706L74.9244 20.2441L74.9244 20.2441L74.5567 20.1706ZM76.6128 16.7438L76.5218 16.38L76.6128 16.7438ZM77.2296 16.1269L77.6009 16.18L77.602 16.1713L77.2296 16.1269ZM76.6128 11.4665L76.5141 11.8283L76.6128 11.4665ZM69.0738 10.9182L69.0578 11.2928L69.0738 10.9182ZM47.5534 13.2484L47.4456 12.8892V12.8892L47.5534 13.2484ZM40.4256 14.7562V15.1312H40.4426L40.4595 15.1297L40.4256 14.7562ZM38.5744 15.1312H39.329V14.3812H38.5744V15.1312ZM31.3389 13.6076C34.6522 14.6016 37.5097 15.036 38.5405 15.1297L38.6084 14.3828C37.6287 14.2937 34.8206 13.8691 31.5544 12.8892L31.3389 13.6076ZM9.94218 11.2928C13.1355 11.157 17.4657 11.4288 21.5178 11.8905C25.5738 12.3525 29.316 13.0008 31.3389 13.6076L31.5544 12.8892C29.465 12.2624 25.6683 11.6085 21.6027 11.1453C17.5333 10.6817 13.1594 10.4053 9.91029 10.5435L9.94218 11.2928ZM2.48591 11.8283C3.18838 11.6367 3.47641 11.568 9.94218 11.2928L9.91029 10.5435C3.49124 10.8167 3.09391 10.8851 2.28857 11.1047L2.48591 11.8283ZM1.80273 12.6316C1.80273 12.3591 1.84936 12.2175 1.92151 12.1241C1.99559 12.0282 2.14464 11.9213 2.48591 11.8283L2.28857 11.1047C1.87595 11.2172 1.54524 11.3845 1.32804 11.6655C1.10891 11.9491 1.05273 12.2873 1.05273 12.6316H1.80273ZM2.14279 16.0826C2.08584 15.6042 2.0004 14.8558 1.92926 14.166C1.85699 13.4653 1.80273 12.8543 1.80273 12.6316H1.05273C1.05273 12.9023 1.11271 13.5593 1.18322 14.243C1.25486 14.9376 1.34077 15.6901 1.39805 16.1713L2.14279 16.0826ZM2.47819 16.38C2.34468 16.3466 2.26499 16.2814 2.2156 16.2198C2.18967 16.1874 2.17114 16.1546 2.15875 16.1261C2.15261 16.1119 2.14833 16.0996 2.14551 16.0899C2.14411 16.0851 2.14315 16.0813 2.14252 16.0784C2.14221 16.077 2.14199 16.0759 2.14185 16.0751C2.14178 16.0747 2.14173 16.0744 2.14169 16.0742C2.14166 16.074 2.14165 16.0739 2.14165 16.0739L1.39918 16.18C1.43839 16.4544 1.67703 16.9528 2.29629 17.1076L2.47819 16.38ZM4.81105 20.097C4.59587 19.0212 4.19988 18.1521 3.7773 17.5274C3.56625 17.2154 3.34537 16.9597 3.13232 16.7687C2.92655 16.5842 2.701 16.4357 2.47819 16.38L2.29629 17.1076C2.34763 17.1204 2.46477 17.1775 2.63166 17.3271C2.79127 17.4702 2.97305 17.6771 3.15608 17.9477C3.52167 18.4881 3.87957 19.2639 4.07561 20.2441L4.81105 20.097ZM4.88214 20.4556C4.85643 20.3254 4.83271 20.2053 4.81105 20.097L4.07561 20.2441C4.09706 20.3514 4.12059 20.4705 4.14635 20.6009L4.88214 20.4556ZM8.49646 30.8911C7.51495 29.7562 6.72443 27.7636 6.11836 25.7086C5.51709 23.6699 5.11487 21.6341 4.88214 20.4556L4.14635 20.6009C4.37887 21.7784 4.78684 23.8452 5.399 25.9208C6.00635 27.9802 6.83249 30.1136 7.92919 31.3817L8.49646 30.8911ZM20.5494 34.7365C18.0466 34.7365 15.5488 34.3811 13.413 33.7168C11.2697 33.0502 9.52849 32.0844 8.49646 30.8911L7.92919 31.3817C9.09032 32.7243 10.9815 33.746 13.1903 34.433C15.4066 35.1223 17.9804 35.4865 20.5494 35.4865V34.7365ZM32.1021 29.3405C29.5119 32.9269 25.5231 34.7365 20.5494 34.7365V35.4865C25.719 35.4865 29.9545 33.5951 32.7101 29.7796L32.1021 29.3405ZM36.2689 20.967C35.8893 22.1095 34.6655 25.7912 32.1021 29.3405L32.7101 29.7796C35.344 26.1327 36.5967 22.3593 36.9806 21.2034L36.2689 20.967ZM36.2996 20.8744C36.29 20.9032 36.2798 20.9342 36.2689 20.967L36.9806 21.2034C36.9915 21.1705 37.0017 21.14 37.0111 21.1116L36.2996 20.8744ZM38.8486 18.6305C38.3038 18.6305 37.7543 18.9388 37.3189 19.337C36.8752 19.743 36.4936 20.2925 36.2996 20.8744L37.0111 21.1116C37.1599 20.6655 37.4636 20.2212 37.8252 19.8904C38.1952 19.5519 38.5709 19.3805 38.8486 19.3805V18.6305ZM39.329 18.6305H38.8486V19.3805H39.329V18.6305ZM39.329 19.3805H39.671V18.6305H39.329V19.3805ZM39.671 19.3805H40.1514V18.6305H39.671V19.3805ZM40.1514 19.3805C40.4291 19.3805 40.8048 19.5519 41.1748 19.8904C41.5364 20.2212 41.8401 20.6655 41.9889 21.1116L42.7004 20.8744C42.5064 20.2925 42.1248 19.743 41.6811 19.337C41.2457 18.9388 40.6962 18.6305 40.1514 18.6305V19.3805ZM41.9889 21.1116C41.9983 21.14 42.0085 21.1705 42.0194 21.2034L42.7311 20.967C42.7202 20.9342 42.71 20.9032 42.7004 20.8744L41.9889 21.1116ZM42.0194 21.2034C42.4033 22.3593 43.656 26.1327 46.2899 29.7796L46.8979 29.3405C44.3345 25.7912 43.1107 22.1095 42.7311 20.967L42.0194 21.2034ZM46.2899 29.7796C49.0455 33.5951 53.281 35.4865 58.4506 35.4865V34.7365C53.4769 34.7365 49.4881 32.9269 46.8979 29.3405L46.2899 29.7796ZM58.4506 35.4865C61.0196 35.4865 63.5934 35.1223 65.8097 34.433C68.0185 33.746 69.9097 32.7243 71.0708 31.3817L70.5035 30.8911C69.4715 32.0844 67.7303 33.0502 65.587 33.7168C63.4512 34.3811 60.9534 34.7365 58.4506 34.7365V35.4865ZM71.0708 31.3817C72.1675 30.1136 72.9937 27.9801 73.601 25.9208C74.2132 23.8452 74.6211 21.7784 74.8537 20.6009L74.1179 20.4556C73.8851 21.6341 73.4829 23.6699 72.8816 25.7086C72.2756 27.7636 71.485 29.7562 70.5035 30.8911L71.0708 31.3817ZM74.8537 20.6009C74.8794 20.4705 74.9029 20.3514 74.9244 20.2441L74.189 20.097C74.1673 20.2053 74.1436 20.3254 74.1179 20.4556L74.8537 20.6009ZM74.9244 20.2441C75.1204 19.2639 75.4783 18.4881 75.8439 17.9477C76.027 17.6771 76.2087 17.4702 76.3683 17.3271C76.5352 17.1775 76.6524 17.1204 76.7037 17.1076L76.5218 16.38C76.299 16.4357 76.0735 16.5842 75.8677 16.7687C75.6546 16.9597 75.4338 17.2154 75.2227 17.5274C74.8001 18.1521 74.4041 19.0212 74.1889 20.097L74.9244 20.2441ZM76.7037 17.1076C77.323 16.9528 77.5616 16.4544 77.6008 16.18L76.8584 16.0739C76.8584 16.0739 76.8583 16.0743 76.8582 16.0751C76.858 16.0759 76.8578 16.077 76.8575 16.0784C76.8568 16.0813 76.8559 16.0851 76.8545 16.0899C76.8517 16.0996 76.8474 16.1119 76.8412 16.1261C76.8289 16.1546 76.8103 16.1874 76.7844 16.2198C76.735 16.2814 76.6553 16.3466 76.5218 16.38L76.7037 17.1076ZM77.602 16.1713C77.6592 15.6901 77.7451 14.9376 77.8168 14.243C77.8873 13.5593 77.9473 12.9023 77.9473 12.6316H77.1973C77.1973 12.8543 77.143 13.4653 77.0707 14.166C76.9996 14.8558 76.9142 15.6042 76.8572 16.0826L77.602 16.1713ZM77.9473 12.6316C77.9473 12.2873 77.8911 11.9491 77.672 11.6655C77.4548 11.3845 77.124 11.2172 76.7114 11.1047L76.5141 11.8283C76.8554 11.9213 77.0044 12.0282 77.0785 12.1241C77.1506 12.2175 77.1973 12.3591 77.1973 12.6316H77.9473ZM76.7114 11.1047C75.9061 10.8851 75.5088 10.8167 69.0897 10.5435L69.0578 11.2928C75.5236 11.568 75.8116 11.6367 76.5141 11.8283L76.7114 11.1047ZM69.0897 10.5435C65.8406 10.4053 61.4667 10.6817 57.3973 11.1453C53.3317 11.6085 49.535 12.2624 47.4456 12.8892L47.6611 13.6076C49.684 13.0008 53.4262 12.3525 57.4822 11.8905C61.5343 11.4288 65.8645 11.157 69.0578 11.2928L69.0897 10.5435ZM47.4456 12.8892C44.1794 13.8691 41.3713 14.2937 40.3916 14.3828L40.4595 15.1297C41.4903 15.036 44.3478 14.6016 47.6611 13.6076L47.4456 12.8892ZM40.4256 14.3812H39.671V15.1312H40.4256V14.3812ZM39.671 14.3812H39.329V15.1312H39.671V14.3812Z" fill="black"/>
<path d="M6.17339 14.6323C6.20787 14.6574 6.22235 14.675 6.22817 14.684C6.22235 14.6931 6.20787 14.7106 6.17339 14.7357C6.10815 14.7832 6.00088 14.8343 5.85034 14.8806C5.5517 14.9725 5.12697 15.0323 4.64913 15.0323C4.1713 15.0323 3.74656 14.9725 3.44792 14.8806C3.29738 14.8343 3.19012 14.7832 3.12488 14.7357C3.09039 14.7106 3.07592 14.6931 3.07009 14.684C3.07592 14.675 3.09039 14.6574 3.12488 14.6323C3.19012 14.5849 3.29738 14.5338 3.44792 14.4875C3.74656 14.3956 4.1713 14.3357 4.64913 14.3357C5.12697 14.3357 5.5517 14.3956 5.85034 14.4875C6.00088 14.5338 6.10815 14.5849 6.17339 14.6323Z" stroke="black" stroke-width="0.4"/>
<path d="M72.8266 14.6323C72.7921 14.6574 72.7777 14.675 72.7718 14.684C72.7777 14.6931 72.7921 14.7106 72.8266 14.7357C72.8919 14.7832 72.9991 14.8343 73.1497 14.8806C73.4483 14.9725 73.873 15.0323 74.3509 15.0323C74.8287 15.0323 75.2534 14.9725 75.5521 14.8806C75.7026 14.8343 75.8099 14.7832 75.8751 14.7357C75.9096 14.7106 75.9241 14.6931 75.9299 14.684C75.9241 14.675 75.9096 14.6574 75.8751 14.6323C75.8099 14.5849 75.7026 14.5338 75.5521 14.4875C75.2534 14.3956 74.8287 14.3357 74.3509 14.3357C73.873 14.3357 73.4483 14.3956 73.1497 14.4875C72.9991 14.5338 72.8919 14.5849 72.8266 14.6323Z" stroke="black" stroke-width="0.4"/>
<path d="M12.5219 13.3183C17.0727 12.9894 21.0204 13.3869 23.7619 13.7981C25.4067 14.022 28.8336 14.4149 31.8492 16.2654C34.8648 18.1159 32.8772 26.9571 28.8336 30.658C24.7899 34.359 16.9082 33.6736 12.5219 32.0287C8.13548 30.3839 7.24457 23.3246 7.03896 21.2685C6.83335 19.2125 6.83335 13.7295 12.5219 13.3183Z" stroke="black" stroke-width="0.5"/>
<path d="M66.734 13.3183C62.1832 12.9894 58.2354 13.3869 55.494 13.7981C53.8492 14.022 50.4223 14.4149 47.4067 16.2654C44.3911 18.1159 46.3787 26.9571 50.4223 30.658C54.4659 34.359 62.3476 33.6736 66.734 32.0287C71.1204 30.3839 72.0113 23.3246 72.2169 21.2685C72.4225 19.2125 72.4225 13.7295 66.734 13.3183Z" stroke="black" stroke-width="0.5"/>
<path d="M7.42773 1.88281L9.92773 3.32619L9.92773 0.439437L7.42773 1.88281ZM33.4277 1.88281L30.9277 0.439439L30.9277 3.32619L33.4277 1.88281ZM9.67773 2.13281L31.1777 2.13281L31.1777 1.63281L9.67773 1.63281L9.67773 2.13281Z" fill="#F3F3F3"/>
<defs>
<filter id="filter0_b_1_27211" x="-15.1504" y="-8.80347" width="70.3281" height="64.1599" filterUnits="userSpaceOnUse" color-interpolation-filters="sRGB">
<feFlood flood-opacity="0" result="BackgroundImageFix"/>
<feGaussianBlur in="BackgroundImageFix" stdDeviation="11"/>
<feComposite in2="SourceAlpha" operator="in" result="effect1_backgroundBlur_1_27211"/>
<feBlend mode="normal" in="SourceGraphic" in2="effect1_backgroundBlur_1_27211" result="shape"/>
</filter>
<filter id="filter1_b_1_27211" x="23.8203" y="-8.80347" width="70.3281" height="64.1599" filterUnits="userSpaceOnUse" color-interpolation-filters="sRGB">
<feFlood flood-opacity="0" result="BackgroundImageFix"/>
<feGaussianBlur in="BackgroundImageFix" stdDeviation="11"/>
<feComposite in2="SourceAlpha" operator="in" result="effect1_backgroundBlur_1_27211"/>
<feBlend mode="normal" in="SourceGraphic" in2="effect1_backgroundBlur_1_27211" result="shape"/>
</filter>
<linearGradient id="paint0_linear_1_27211" x1="19.0416" y1="10.8828" x2="19.0416" y2="35.1115" gradientUnits="userSpaceOnUse">
<stop stop-color="#F07B00"/>
<stop offset="1" stop-color="#FBFFF1"/>
</linearGradient>
<linearGradient id="paint1_linear_1_27211" x1="10.5715" y1="3.22418" x2="38.2291" y2="34.545" gradientUnits="userSpaceOnUse">
<stop stop-color="white"/>
<stop offset="1" stop-color="white" stop-opacity="0.32"/>
</linearGradient>
<linearGradient id="paint2_linear_1_27211" x1="32.5896" y1="33.7206" x2="2.5207" y2="15.7913" gradientUnits="userSpaceOnUse">
<stop stop-color="white" stop-opacity="0.74"/>
<stop offset="1" stop-color="#F8F8F8" stop-opacity="0"/>
</linearGradient>
<linearGradient id="paint3_linear_1_27211" x1="68.4265" y1="3.22418" x2="40.769" y2="34.545" gradientUnits="userSpaceOnUse">
<stop stop-color="white"/>
<stop offset="1" stop-color="white" stop-opacity="0.32"/>
</linearGradient>
<linearGradient id="paint4_linear_1_27211" x1="46.4084" y1="33.7206" x2="76.4774" y2="15.7913" gradientUnits="userSpaceOnUse">
<stop stop-color="white" stop-opacity="0.74"/>
<stop offset="1" stop-color="#F8F8F8" stop-opacity="0"/>
</linearGradient>
</defs>
</svg>
