<svg width="88" height="40" viewBox="0 0 88 40" fill="none" xmlns="http://www.w3.org/2000/svg">
<path d="M36.4466 14.2484C39.7364 15.2353 39.9277 16.3828 40.4277 16.8828L41.079 18.5109C41.3102 19.089 41.4552 19.698 41.5093 20.3184C41.6063 21.4305 41.576 22.5579 41.1969 23.6079C40.5698 25.3447 39.3316 27.8941 37.4061 30.5601C34.7332 34.261 30.621 36.1115 25.5494 36.1115C20.4777 36.1115 15.406 34.6722 13.2128 32.1364C11.0197 29.6005 9.85455 23.2267 9.44333 21.1706C9.03211 19.1145 7.93553 17.8808 7.38724 17.7438C6.94861 17.6341 6.79326 17.2869 6.77042 17.1269C6.65619 16.1674 6.42773 14.1251 6.42773 13.6316C6.42773 13.0148 6.63334 12.6721 7.38724 12.4665C8.14114 12.2609 8.48382 12.1923 14.9262 11.9182C21.3686 11.644 32.3345 13.0148 36.4466 14.2484Z" fill="url(#paint0_linear_1_27236)"/>
<g filter="url(#filter0_b_1_27236)">
<path d="M17.393 14.3183C21.9438 13.9894 25.8915 14.3869 28.633 14.7981C30.2778 15.022 33.7047 15.4149 36.7203 17.2654C39.7359 19.1159 37.7483 27.9571 33.7047 31.658C29.661 35.359 21.7793 34.6736 17.393 33.0287C13.0066 31.3839 12.1157 24.3246 11.9101 22.2685C11.7044 20.2125 11.7044 14.7295 17.393 14.3183Z" fill="url(#paint1_linear_1_27236)"/>
<path d="M28.5588 15.2926L28.5588 15.2926L28.5655 15.2935C28.6356 15.3031 28.7087 15.3129 28.7846 15.3231C30.5043 15.5543 33.6694 15.9799 36.4587 17.6916C37.0326 18.0437 37.4313 18.7703 37.5956 19.8497C37.7583 20.9186 37.6753 22.2488 37.3709 23.6625C36.76 26.4994 35.2902 29.5291 33.3671 31.2892C31.4719 33.0237 28.6316 33.7642 25.6632 33.8483C22.7042 33.9321 19.7016 33.3605 17.5685 32.5606C15.5885 31.8181 14.3375 29.8236 13.5545 27.6345C12.7788 25.4658 12.5093 23.236 12.4076 22.2188C12.3074 21.2174 12.2652 19.4309 12.9041 17.8656C13.2203 17.091 13.6982 16.3826 14.4096 15.8433C15.119 15.3055 16.0898 14.9138 17.429 14.817C21.9312 14.4916 25.8399 14.8847 28.5588 15.2926Z" stroke="url(#paint2_linear_1_27236)"/>
</g>
<g filter="url(#filter1_b_1_27236)">
<path d="M71.6051 14.3183C67.0543 13.9894 63.1065 14.3869 60.3651 14.7981C58.7203 15.022 55.2934 15.4149 52.2778 17.2654C49.2622 19.1159 51.2497 27.9571 55.2934 31.658C59.337 35.359 67.2187 34.6736 71.6051 33.0287C75.9915 31.3839 76.8824 24.3246 77.088 22.2685C77.2936 20.2125 77.2936 14.7295 71.6051 14.3183Z" fill="url(#paint3_linear_1_27236)"/>
<path d="M60.4392 15.2926L60.4393 15.2926L60.4325 15.2935C60.3624 15.3031 60.2894 15.3129 60.2135 15.3231C58.4937 15.5543 55.3287 15.9799 52.5393 17.6916C51.9654 18.0437 51.5667 18.7703 51.4024 19.8497C51.2398 20.9186 51.3228 22.2488 51.6272 23.6625C52.2381 26.4994 53.7079 29.5291 55.631 31.2892C57.5261 33.0237 60.3665 33.7642 63.3349 33.8483C66.2938 33.9321 69.2964 33.3605 71.4295 32.5606C73.4095 31.8181 74.6605 29.8236 75.4435 27.6345C76.2192 25.4658 76.4888 23.236 76.5905 22.2188C76.6906 21.2174 76.7328 19.4309 76.0939 17.8656C75.7778 17.091 75.2998 16.3826 74.5885 15.8433C73.8791 15.3055 72.9083 14.9138 71.569 14.817C67.0668 14.4916 63.1582 14.8847 60.4392 15.2926Z" stroke="url(#paint4_linear_1_27236)"/>
</g>
<path d="M43.5744 15.7562L43.5405 16.1297L43.5574 16.1312H43.5744V15.7562ZM36.4466 14.2484L36.5544 13.8892V13.8892L36.4466 14.2484ZM14.9262 11.9182L14.9422 12.2928L14.9262 11.9182ZM7.38724 12.4665L7.48591 12.8283L7.38724 12.4665ZM6.77042 17.1269L6.39794 17.1713L6.39918 17.18L6.77042 17.1269ZM7.38724 17.7438L7.29629 18.1076H7.29629L7.38724 17.7438ZM9.44333 21.1706L9.07561 21.2441L9.44333 21.1706ZM9.51424 21.5283L9.14635 21.6009L9.51424 21.5283ZM13.2128 32.1364L12.9292 32.3817V32.3817L13.2128 32.1364ZM37.4061 30.5601L37.7101 30.7796L37.4061 30.5601ZM41.6247 22.0852L41.2689 21.967V21.967L41.6247 22.0852ZM41.6554 21.993L42.0111 22.1116L42.0111 22.1116L41.6554 21.993ZM47.3446 21.993L46.9889 22.1116L46.9889 22.1116L47.3446 21.993ZM47.3753 22.0852L47.7311 21.967V21.967L47.3753 22.0852ZM51.5939 30.5601L51.2899 30.7796L51.5939 30.5601ZM75.7872 32.1364L75.5035 31.8911V31.8911L75.7872 32.1364ZM79.4858 21.5283L79.1179 21.4556V21.4556L79.4858 21.5283ZM79.5567 21.1706L79.9244 21.2441L79.9244 21.2441L79.5567 21.1706ZM81.6128 17.7438L81.5218 17.38L81.6128 17.7438ZM82.2296 17.1269L82.6009 17.18L82.602 17.1713L82.2296 17.1269ZM81.6128 12.4665L81.5141 12.8283L81.6128 12.4665ZM74.0738 11.9182L74.0578 12.2928L74.0738 11.9182ZM52.5534 14.2484L52.4456 13.8892V13.8892L52.5534 14.2484ZM45.4256 15.7562V16.1312H45.4426L45.4595 16.1297L45.4256 15.7562ZM43.5744 16.1312H44.329V15.3812H43.5744V16.1312ZM36.3389 14.6076C39.6522 15.6016 42.5097 16.036 43.5405 16.1297L43.6084 15.3828C42.6287 15.2937 39.8206 14.8691 36.5544 13.8892L36.3389 14.6076ZM14.9422 12.2928C18.1355 12.157 22.4657 12.4288 26.5178 12.8905C30.5738 13.3525 34.316 14.0008 36.3389 14.6076L36.5544 13.8892C34.465 13.2624 30.6683 12.6085 26.6027 12.1453C22.5333 11.6817 18.1594 11.4053 14.9103 11.5435L14.9422 12.2928ZM7.48591 12.8283C8.18838 12.6367 8.47641 12.568 14.9422 12.2928L14.9103 11.5435C8.49124 11.8167 8.09391 11.8851 7.28857 12.1047L7.48591 12.8283ZM6.80273 13.6316C6.80273 13.3591 6.84936 13.2175 6.92151 13.1241C6.99559 13.0282 7.14464 12.9213 7.48591 12.8283L7.28857 12.1047C6.87595 12.2172 6.54524 12.3845 6.32804 12.6655C6.10891 12.9491 6.05273 13.2873 6.05273 13.6316H6.80273ZM7.14279 17.0826C7.08584 16.6042 7.0004 15.8558 6.92926 15.166C6.85699 14.4653 6.80273 13.8543 6.80273 13.6316H6.05273C6.05273 13.9023 6.11271 14.5593 6.18322 15.243C6.25486 15.9376 6.34077 16.6901 6.39805 17.1713L7.14279 17.0826ZM7.47819 17.38C7.34468 17.3466 7.26499 17.2814 7.2156 17.2198C7.18967 17.1874 7.17114 17.1546 7.15875 17.1261C7.15261 17.1119 7.14833 17.0996 7.14551 17.0899C7.14411 17.0851 7.14315 17.0813 7.14252 17.0784C7.14221 17.077 7.14199 17.0759 7.14185 17.0751C7.14178 17.0747 7.14173 17.0744 7.14169 17.0742C7.14166 17.074 7.14165 17.0739 7.14165 17.0739L6.39918 17.18C6.43839 17.4544 6.67703 17.9528 7.29629 18.1076L7.47819 17.38ZM9.81105 21.097C9.59587 20.0212 9.19988 19.1521 8.7773 18.5274C8.56625 18.2154 8.34537 17.9597 8.13232 17.7687C7.92655 17.5842 7.701 17.4357 7.47819 17.38L7.29629 18.1076C7.34763 18.1204 7.46477 18.1775 7.63166 18.3271C7.79127 18.4702 7.97305 18.6771 8.15608 18.9477C8.52167 19.4881 8.87957 20.2639 9.07561 21.2441L9.81105 21.097ZM9.88214 21.4556C9.85643 21.3254 9.83271 21.2053 9.81105 21.097L9.07561 21.2441C9.09706 21.3514 9.12059 21.4705 9.14635 21.6009L9.88214 21.4556ZM13.4965 31.8911C12.515 30.7562 11.7244 28.7636 11.1184 26.7086C10.5171 24.6699 10.1149 22.6341 9.88214 21.4556L9.14635 21.6009C9.37887 22.7784 9.78684 24.8452 10.399 26.9208C11.0064 28.9802 11.8325 31.1136 12.9292 32.3817L13.4965 31.8911ZM25.5494 35.7365C23.0466 35.7365 20.5488 35.3811 18.413 34.7168C16.2697 34.0502 14.5285 33.0844 13.4965 31.8911L12.9292 32.3817C14.0903 33.7243 15.9815 34.746 18.1903 35.433C20.4066 36.1223 22.9804 36.4865 25.5494 36.4865V35.7365ZM37.1021 30.3405C34.5119 33.9269 30.5231 35.7365 25.5494 35.7365V36.4865C30.719 36.4865 34.9545 34.5951 37.7101 30.7796L37.1021 30.3405ZM41.2689 21.967C40.8893 23.1095 39.6655 26.7912 37.1021 30.3405L37.7101 30.7796C40.344 27.1327 41.5967 23.3593 41.9806 22.2034L41.2689 21.967ZM41.2996 21.8744C41.29 21.9032 41.2798 21.9342 41.2689 21.967L41.9806 22.2034C41.9915 22.1705 42.0017 22.14 42.0111 22.1116L41.2996 21.8744ZM43.8486 19.6305C43.3038 19.6305 42.7543 19.9388 42.3189 20.337C41.8752 20.743 41.4936 21.2925 41.2996 21.8744L42.0111 22.1116C42.1599 21.6655 42.4636 21.2212 42.8252 20.8904C43.1952 20.5519 43.5709 20.3805 43.8486 20.3805V19.6305ZM44.329 19.6305H43.8486V20.3805H44.329V19.6305ZM44.329 20.3805H44.671V19.6305H44.329V20.3805ZM44.671 20.3805H45.1514V19.6305H44.671V20.3805ZM45.1514 20.3805C45.4291 20.3805 45.8048 20.5519 46.1748 20.8904C46.5364 21.2212 46.8401 21.6655 46.9889 22.1116L47.7004 21.8744C47.5064 21.2925 47.1248 20.743 46.6811 20.337C46.2457 19.9388 45.6962 19.6305 45.1514 19.6305V20.3805ZM46.9889 22.1116C46.9983 22.14 47.0085 22.1705 47.0194 22.2034L47.7311 21.967C47.7202 21.9342 47.71 21.9032 47.7004 21.8744L46.9889 22.1116ZM47.0194 22.2034C47.4033 23.3593 48.656 27.1327 51.2899 30.7796L51.8979 30.3405C49.3345 26.7912 48.1107 23.1095 47.7311 21.967L47.0194 22.2034ZM51.2899 30.7796C54.0455 34.5951 58.281 36.4865 63.4506 36.4865V35.7365C58.4769 35.7365 54.4881 33.9269 51.8979 30.3405L51.2899 30.7796ZM63.4506 36.4865C66.0196 36.4865 68.5934 36.1223 70.8097 35.433C73.0185 34.746 74.9097 33.7243 76.0708 32.3817L75.5035 31.8911C74.4715 33.0844 72.7303 34.0502 70.587 34.7168C68.4512 35.3811 65.9534 35.7365 63.4506 35.7365V36.4865ZM76.0708 32.3817C77.1675 31.1136 77.9937 28.9801 78.601 26.9208C79.2132 24.8452 79.6211 22.7784 79.8537 21.6009L79.1179 21.4556C78.8851 22.6341 78.4829 24.6699 77.8816 26.7086C77.2756 28.7636 76.485 30.7562 75.5035 31.8911L76.0708 32.3817ZM79.8537 21.6009C79.8794 21.4705 79.9029 21.3514 79.9244 21.2441L79.189 21.097C79.1673 21.2053 79.1436 21.3254 79.1179 21.4556L79.8537 21.6009ZM79.9244 21.2441C80.1204 20.2639 80.4783 19.4881 80.8439 18.9477C81.027 18.6771 81.2087 18.4702 81.3683 18.3271C81.5352 18.1775 81.6524 18.1204 81.7037 18.1076L81.5218 17.38C81.299 17.4357 81.0735 17.5842 80.8677 17.7687C80.6546 17.9597 80.4338 18.2154 80.2227 18.5274C79.8001 19.1521 79.4041 20.0212 79.1889 21.097L79.9244 21.2441ZM81.7037 18.1076C82.323 17.9528 82.5616 17.4544 82.6008 17.18L81.8584 17.0739C81.8584 17.0739 81.8583 17.0743 81.8582 17.0751C81.858 17.0759 81.8578 17.077 81.8575 17.0784C81.8568 17.0813 81.8559 17.0851 81.8545 17.0899C81.8517 17.0996 81.8474 17.1119 81.8412 17.1261C81.8289 17.1546 81.8103 17.1874 81.7844 17.2198C81.735 17.2814 81.6553 17.3466 81.5218 17.38L81.7037 18.1076ZM82.602 17.1713C82.6592 16.6901 82.7451 15.9376 82.8168 15.243C82.8873 14.5593 82.9473 13.9023 82.9473 13.6316H82.1973C82.1973 13.8543 82.143 14.4653 82.0707 15.166C81.9996 15.8558 81.9142 16.6042 81.8572 17.0826L82.602 17.1713ZM82.9473 13.6316C82.9473 13.2873 82.8911 12.9491 82.672 12.6655C82.4548 12.3845 82.124 12.2172 81.7114 12.1047L81.5141 12.8283C81.8554 12.9213 82.0044 13.0282 82.0785 13.1241C82.1506 13.2175 82.1973 13.3591 82.1973 13.6316H82.9473ZM81.7114 12.1047C80.9061 11.8851 80.5088 11.8167 74.0897 11.5435L74.0578 12.2928C80.5236 12.568 80.8116 12.6367 81.5141 12.8283L81.7114 12.1047ZM74.0897 11.5435C70.8406 11.4053 66.4667 11.6817 62.3973 12.1453C58.3317 12.6085 54.535 13.2624 52.4456 13.8892L52.6611 14.6076C54.684 14.0008 58.4262 13.3525 62.4822 12.8905C66.5343 12.4288 70.8645 12.157 74.0578 12.2928L74.0897 11.5435ZM52.4456 13.8892C49.1794 14.8691 46.3713 15.2937 45.3916 15.3828L45.4595 16.1297C46.4903 16.036 49.3478 15.6016 52.6611 14.6076L52.4456 13.8892ZM45.4256 15.3812H44.671V16.1312H45.4256V15.3812ZM44.671 15.3812H44.329V16.1312H44.671V15.3812Z" fill="black"/>
<path d="M11.1734 15.6323C11.2079 15.6574 11.2223 15.675 11.2282 15.684C11.2223 15.6931 11.2079 15.7106 11.1734 15.7357C11.1081 15.7832 11.0009 15.8343 10.8503 15.8806C10.5517 15.9725 10.127 16.0323 9.64913 16.0323C9.1713 16.0323 8.74656 15.9725 8.44792 15.8806C8.29738 15.8343 8.19012 15.7832 8.12488 15.7357C8.09039 15.7106 8.07592 15.6931 8.07009 15.684C8.07592 15.675 8.09039 15.6574 8.12488 15.6323C8.19012 15.5849 8.29738 15.5338 8.44792 15.4875C8.74656 15.3956 9.1713 15.3357 9.64913 15.3357C10.127 15.3357 10.5517 15.3956 10.8503 15.4875C11.0009 15.5338 11.1081 15.5849 11.1734 15.6323Z" stroke="black" stroke-width="0.4"/>
<path d="M77.8266 15.6323C77.7921 15.6574 77.7777 15.675 77.7718 15.684C77.7777 15.6931 77.7921 15.7106 77.8266 15.7357C77.8919 15.7832 77.9991 15.8343 78.1497 15.8806C78.4483 15.9725 78.873 16.0323 79.3509 16.0323C79.8287 16.0323 80.2534 15.9725 80.5521 15.8806C80.7026 15.8343 80.8099 15.7832 80.8751 15.7357C80.9096 15.7106 80.9241 15.6931 80.9299 15.684C80.9241 15.675 80.9096 15.6574 80.8751 15.6323C80.8099 15.5849 80.7026 15.5338 80.5521 15.4875C80.2534 15.3956 79.8287 15.3357 79.3509 15.3357C78.873 15.3357 78.4483 15.3956 78.1497 15.4875C77.9991 15.5338 77.8919 15.5849 77.8266 15.6323Z" stroke="black" stroke-width="0.4"/>
<path d="M17.5219 14.3183C22.0727 13.9894 26.0204 14.3869 28.7619 14.7981C30.4067 15.022 33.8336 15.4149 36.8492 17.2654C39.8648 19.1159 37.8772 27.9571 33.8336 31.658C29.7899 35.359 21.9082 34.6736 17.5219 33.0287C13.1355 31.3839 12.2446 24.3246 12.039 22.2685C11.8334 20.2125 11.8334 14.7295 17.5219 14.3183Z" stroke="black" stroke-width="0.5"/>
<path d="M71.734 14.3183C67.1832 13.9894 63.2354 14.3869 60.494 14.7981C58.8492 15.022 55.4223 15.4149 52.4067 17.2654C49.3911 19.1159 51.3787 27.9571 55.4223 31.658C59.4659 35.359 67.3476 34.6736 71.734 33.0287C76.1204 31.3839 77.0113 24.3246 77.2169 22.2685C77.4225 20.2125 77.4225 14.7295 71.734 14.3183Z" stroke="black" stroke-width="0.5"/>
<path d="M2 37L3.44338 34.5L0.556624 34.5L2 37ZM2 12L0.556625 14.5L3.44338 14.5L2 12ZM2.25 34.75L2.25 14.25L1.75 14.25L1.75 34.75L2.25 34.75Z" fill="#F3F3F3"/>
<defs>
<filter id="filter0_b_1_27236" x="-10.1504" y="-7.80347" width="70.3281" height="64.1599" filterUnits="userSpaceOnUse" color-interpolation-filters="sRGB">
<feFlood flood-opacity="0" result="BackgroundImageFix"/>
<feGaussianBlur in="BackgroundImageFix" stdDeviation="11"/>
<feComposite in2="SourceAlpha" operator="in" result="effect1_backgroundBlur_1_27236"/>
<feBlend mode="normal" in="SourceGraphic" in2="effect1_backgroundBlur_1_27236" result="shape"/>
</filter>
<filter id="filter1_b_1_27236" x="28.8203" y="-7.80347" width="70.3281" height="64.1599" filterUnits="userSpaceOnUse" color-interpolation-filters="sRGB">
<feFlood flood-opacity="0" result="BackgroundImageFix"/>
<feGaussianBlur in="BackgroundImageFix" stdDeviation="11"/>
<feComposite in2="SourceAlpha" operator="in" result="effect1_backgroundBlur_1_27236"/>
<feBlend mode="normal" in="SourceGraphic" in2="effect1_backgroundBlur_1_27236" result="shape"/>
</filter>
<linearGradient id="paint0_linear_1_27236" x1="24.0416" y1="11.8828" x2="24.0416" y2="36.1115" gradientUnits="userSpaceOnUse">
<stop stop-color="#F07B00"/>
<stop offset="1" stop-color="#FBFFF1"/>
</linearGradient>
<linearGradient id="paint1_linear_1_27236" x1="15.5715" y1="4.22418" x2="43.2291" y2="35.545" gradientUnits="userSpaceOnUse">
<stop stop-color="white"/>
<stop offset="1" stop-color="white" stop-opacity="0.32"/>
</linearGradient>
<linearGradient id="paint2_linear_1_27236" x1="37.5896" y1="34.7206" x2="7.5207" y2="16.7913" gradientUnits="userSpaceOnUse">
<stop stop-color="white" stop-opacity="0.74"/>
<stop offset="1" stop-color="#F8F8F8" stop-opacity="0"/>
</linearGradient>
<linearGradient id="paint3_linear_1_27236" x1="73.4265" y1="4.22418" x2="45.769" y2="35.545" gradientUnits="userSpaceOnUse">
<stop stop-color="white"/>
<stop offset="1" stop-color="white" stop-opacity="0.32"/>
</linearGradient>
<linearGradient id="paint4_linear_1_27236" x1="51.4084" y1="34.7206" x2="81.4774" y2="16.7913" gradientUnits="userSpaceOnUse">
<stop stop-color="white" stop-opacity="0.74"/>
<stop offset="1" stop-color="#F8F8F8" stop-opacity="0"/>
</linearGradient>
</defs>
</svg>
