<svg width="85" height="35" viewBox="0 0 85 35" fill="none" xmlns="http://www.w3.org/2000/svg">
<path d="M9.03554 18.8061C8.97231 18.7998 8.80078 18.7613 8.80078 18.7025L9.31257 13.4922C10.5802 13.4922 15.3418 13.6433 24.2471 14.2477C33.1523 14.8522 45.7044 16.5143 50.8672 17.2699C52.5126 17.5133 57.5965 18.4284 64.7691 20.1409C73.7349 22.2816 82.2725 29.1067 83.8591 30.4918C85.4457 31.877 83.2295 33.6903 80.9125 34.194C78.5955 34.6976 77.6637 33.5643 76.3289 32.3303C74.9941 31.0962 71.0401 26.5882 66.0032 24.246C60.9663 21.9039 51.0687 24.7245 49.608 25.0519C48.4394 25.3139 46.9384 25.1611 46.334 25.0519C33.9851 22.9784 9.23702 18.8263 9.03554 18.8061Z" fill="url(#paint0_linear_1_27291)"/>
<path d="M4.63198 13.3906C4.53124 13.4074 4.22399 13.3806 4.20384 13.6425C4.17866 13.9699 4.05273 18.1253 4.05273 18.2513C4.05273 18.3772 4.12829 18.4527 4.53124 18.4527" stroke="black" stroke-width="0.5" stroke-linecap="round" stroke-linejoin="round"/>
<path d="M7.36214 18.5537C6.84166 18.5118 5.58968 18.5217 5.28746 18.5015C4.90969 18.4763 3.87712 18.1993 3.85194 19.2319C3.82675 20.2645 5.08598 30.2376 4.75858 32.3783C4.52362 33.9146 4.07859 34.2923 3.85194 34.3931" stroke="black" stroke-width="0.5" stroke-linecap="round" stroke-linejoin="round"/>
<path d="M5.81653 18.5555C5.43876 18.5303 5.03378 19.1086 5.13452 20.0152C5.24859 21.0418 6.34379 30.2904 6.01639 32.4311C5.78143 33.9674 5.33603 34.3199 5.10938 34.4207" stroke="black" stroke-width="0.5" stroke-linecap="round" stroke-linejoin="round"/>
<path d="M0.904528 12.9619C0.862554 12.8024 0.748383 12.428 0.627497 12.2064C0.476389 11.9293 0.501574 11.7027 0.501574 11.3249C0.501574 10.9471 0.602313 10.7205 1.08082 10.6449C1.55933 10.5694 2.66745 10.3427 3.22151 10.6449C3.77558 10.9471 6.34441 12.5085 7.45253 12.8107C8.56066 13.113 9.49249 13.113 9.41693 13.5159M8.85631 18.6536C8.73361 18.7258 8.65132 18.7442 8.30881 18.704C7.9663 18.6637 7.44414 18.6536 7.22587 18.6536C7.0076 18.8886 6.59626 20.4568 6.69699 24.849C6.82292 30.3393 7.65401 33.4621 6.16812 34.0918C4.68222 34.7214 3.54891 34.6458 3.17115 33.7895C2.86893 33.1045 2.49116 30.5827 2.34005 29.4074" stroke="black" stroke-width="0.75" stroke-linecap="round" stroke-linejoin="round"/>
<path d="M9.41609 13.5156C10.6837 13.5156 15.4453 13.6667 24.3506 14.2712C33.2559 14.8756 45.8079 16.5378 50.9707 17.2933C52.6161 17.5368 57.7001 18.4518 64.8727 20.1644C73.8384 22.3051 82.376 29.1301 83.9626 30.5153C85.5492 31.9004 83.333 33.7137 81.016 34.2174C78.699 34.7211 77.7672 33.5878 76.4324 32.3537C75.0976 31.1197 71.1436 26.6116 66.1067 24.2695C61.0698 21.9273 51.1722 24.748 49.7115 25.0754C48.5429 25.3373 47.0419 25.1845 46.4375 25.0754C34.0886 23.0018 9.34053 18.8497 9.13906 18.8296C9.07583 18.8233 8.9043 18.7847 8.9043 18.726" stroke="black" stroke-width="0.75" stroke-linecap="round" stroke-linejoin="round"/>
<path d="M9.41734 13.5156C9.21587 14.0193 9.1655 14.3971 9.14031 14.8756C9.12016 15.2584 8.94723 17.0331 8.86328 17.8726L8.88847 18.6281" stroke="black" stroke-width="0.5" stroke-linecap="round" stroke-linejoin="round"/>
<path d="M3.87631 33.1606C3.39277 32.7979 2.65066 30.5078 2.34005 29.4081C2.03784 28.258 1.36792 25.1368 1.106 21.8527C0.778603 17.7477 0.854157 13.3403 0.904527 12.9626L1.00527 12.207C1.106 12.291 1.36792 12.5293 1.6097 12.8114C2.71782 13.9254 3.2467 21.0972 3.44817 22.8853C3.64965 24.6734 4.20371 30.0629 4.20371 30.6169C4.20371 31.171 4.30445 32.4051 3.87631 33.1606Z" fill="white" stroke="black" stroke-width="0.5" stroke-linecap="round" stroke-linejoin="round"/>
<path d="M0.779297 10.7461C1.36694 11.0651 2.75377 11.8996 3.3985 12.4838C4.20441 13.2142 4.25478 13.4157 4.83402 13.3905C5.41327 13.3653 8.58653 13.5164 9.2917 13.7934" stroke="black" stroke-width="0.5" stroke-linecap="round" stroke-linejoin="round"/>
<path d="M3.70192 15.6331C3.70192 15.7824 3.65684 15.9096 3.59368 15.9949C3.53049 16.0802 3.45917 16.1131 3.39822 16.1131C3.33728 16.1131 3.26596 16.0802 3.20277 15.9949C3.13961 15.9096 3.09453 15.7824 3.09453 15.6331C3.09453 15.4839 3.13961 15.3566 3.20277 15.2713C3.26596 15.186 3.33728 15.1531 3.39822 15.1531C3.45917 15.1531 3.53049 15.186 3.59368 15.2713C3.65684 15.3566 3.70192 15.4839 3.70192 15.6331Z" stroke="black" stroke-width="0.4"/>
<path d="M9.5 1.49219L12 2.93556V0.0488118L9.5 1.49219ZM84.5 1.49219L82 0.0488118V2.93556L84.5 1.49219ZM11.75 1.74219H82.25V1.24219H11.75V1.74219Z" fill="#F3F3F3"/>
<defs>
<linearGradient id="paint0_linear_1_27291" x1="57.3808" y1="33.185" x2="67.5776" y2="8.03985" gradientUnits="userSpaceOnUse">
<stop stop-color="#F07B00"/>
<stop offset="1" stop-color="#F9FFED"/>
</linearGradient>
</defs>
</svg>
